<?xml version="1.0" encoding="iso-8859-1"?>
<!-- Uploaded to: SVG Repo, www.svgrepo.com, Generator: SVG Repo Mixer Tools -->
<!DOCTYPE svg PUBLIC "-//W3C//DTD SVG 1.1//EN" "http://www.w3.org/Graphics/SVG/1.1/DTD/svg11.dtd">
<svg fill="#000000" version="1.1" id="Capa_1" xmlns="http://www.w3.org/2000/svg" xmlns:xlink="http://www.w3.org/1999/xlink" 
	 viewBox="0 0 470.002 470.002" xml:space="preserve">
<g>
	<rect x="182.751" y="331.58" width="104.5" height="88"/>
	<g>
		<path d="M452.002,232.955h-97.833v228.999h97.833c9.925,0,18-8.075,18-18V250.955C470.002,241.03,461.927,232.955,452.002,232.955
			z"/>
		<path d="M18,461.955h101.167V232.955H18c-9.925,0-18,8.075-18,18v192.999C0,453.88,8.075,461.955,18,461.955z"/>
	</g>
	<path d="M139.167,232.955v228.999h195.003V232.955H139.167z M290.002,266.086c5.385,0,9.75,4.365,9.75,9.75
		c0,5.385-4.365,9.75-9.75,9.75s-9.75-4.365-9.75-9.75C280.252,270.451,284.618,266.086,290.002,266.086z M253.336,266.086
		c5.384,0,9.749,4.365,9.749,9.75c0,5.385-4.365,9.75-9.749,9.75c-5.387,0-9.753-4.365-9.753-9.75
		C243.584,270.451,247.95,266.086,253.336,266.086z M216.67,266.086c5.384,0,9.749,4.365,9.749,9.75c0,5.385-4.365,9.75-9.749,9.75
		c-5.387,0-9.754-4.365-9.754-9.75C206.917,270.451,211.284,266.086,216.67,266.086z M180,266.086c5.385,0,9.75,4.365,9.75,9.75
		c0,5.385-4.365,9.75-9.75,9.75c-5.385,0-9.75-4.365-9.75-9.75C170.25,270.451,174.615,266.086,180,266.086z M307.251,429.58
		c0,5.523-4.478,10-10,10h-124.5c-5.523,0-10-4.477-10-10v-108c0-5.523,4.477-10,10-10h124.5c5.522,0,10,4.477,10,10V429.58z"/>
</g>
<path d="M270.045,114.927c-6.155,0-11.191-5.036-11.191-11.191V19.239c0-6.155-5.036-11.191-11.192-11.191h-25.32
	c-6.156,0-11.192,5.036-11.192,11.191v84.497c0,6.155-5.036,11.191-11.191,11.191h-43.297c-6.156,0-11.192,5.036-11.192,11.191
	v21.63c0,6.155,5.036,11.191,11.192,11.191h156.682c6.155,0,11.192-5.036,11.192-11.191v-21.63c0-6.155-5.037-11.191-11.192-11.191
	H270.045z"/>
</svg>