<?xml version="1.0" encoding="UTF-8"?>
<svg version="1.1" xmlns="http://www.w3.org/2000/svg" width="512" height="512">
<path d="M0 0 C0.00808685 0.83334869 0.01617371 1.66669739 0.02450562 2.52529907 C0.10294729 10.43834726 0.19038042 18.35123664 0.28752708 26.26407814 C0.33714587 30.33064087 0.38347411 34.39718183 0.421875 38.46386719 C0.45916869 42.39975572 0.5056375 46.33544513 0.55806351 50.27116013 C0.57637654 51.7611575 0.59156631 53.25119716 0.60334396 54.74126053 C0.75619898 73.43811633 2.34842683 89.40371178 15 104 C21.18454147 110.03069716 27.93918082 113.9787218 36 117 C36.65355469 117.24621094 37.30710938 117.49242187 37.98046875 117.74609375 C49.35658713 121.26323056 62.86807607 119.61162621 73.35546875 114.30078125 C86.11185705 106.82897268 94.96527872 97.46784212 99.45703125 83.203125 C100.75718648 77.92767502 101.14137076 72.86082391 101.20532227 67.43408203 C101.21522186 66.70168808 101.22512146 65.96929413 101.23532104 65.21470642 C101.26671427 62.81244046 101.29160498 60.41015478 101.31640625 58.0078125 C101.33699497 56.33486439 101.35799193 54.66192125 101.37937927 52.98898315 C101.43440192 48.59965055 101.48389801 44.21027255 101.53222656 39.82086182 C101.58258679 35.33626293 101.63819684 30.85172944 101.69335938 26.3671875 C101.80069845 17.5781804 101.90219661 8.78911836 102 0 C108.39388863 2.05493002 114.25622713 4.40448964 120.1875 7.5625 C121.01338623 8.00158691 121.83927246 8.44067383 122.69018555 8.89306641 C135.74368922 15.98051838 146.98343784 25.099372 158 35 C158.67546875 35.60199219 159.3509375 36.20398438 160.046875 36.82421875 C182.67065919 58.20908142 196.77380176 88.98263773 203 119 C203.9178125 119.14695312 204.835625 119.29390625 205.78125 119.4453125 C215.32433571 121.18953195 221.24898797 123.36059039 227.375 130.9375 C231.2905485 138.31680294 232.21116748 145.7274326 230.34765625 153.83984375 C228.33411238 160.13972994 225.61648773 165.28261244 220 169 C212.93555266 172.33322104 206.65413016 172.4258214 198.91885376 172.38768005 C197.60825371 172.39306559 196.29765366 172.39845113 194.94733846 172.40399987 C191.32474228 172.4184194 187.70237428 172.41422078 184.0797658 172.40683305 C180.16690991 172.40209497 176.25410293 172.41461691 172.34126282 172.42485046 C164.68145082 172.44203152 157.02172088 172.44287989 149.36189462 172.43763756 C143.13456899 172.43359319 136.90726757 172.4350426 130.67994308 172.44038582 C129.79302328 172.44113424 128.90610347 172.44188266 127.9923073 172.44265376 C126.19041988 172.44418527 124.38853246 172.44572362 122.58664505 172.44726873 C105.69521759 172.46099137 88.80383647 172.45555784 71.91241007 172.44408352 C56.46786325 172.43415229 41.02343626 172.44709032 25.57890792 172.47101771 C9.71095977 172.49541539 -6.15693259 172.50501488 -22.02489913 172.49836498 C-30.92974496 172.49487414 -39.83449866 172.49709592 -48.73933029 172.51461601 C-56.32013848 172.52934639 -63.90078965 172.52996258 -71.48159479 172.5125451 C-75.34719622 172.5040394 -79.21251729 172.50187479 -83.07810402 172.51719666 C-87.27392486 172.53362116 -91.4690708 172.51888144 -95.66488647 172.50120544 C-97.48650002 172.51561295 -97.48650002 172.51561295 -99.34491384 172.53031152 C-107.15747344 172.46264622 -114.82840714 171.69260904 -120.91080034 166.30859846 C-126.43300742 160.44494262 -128.55679138 154.03020989 -128.4375 146.0625 C-128.43065186 145.35955811 -128.42380371 144.65661621 -128.41674805 143.93237305 C-128.19138958 136.65759904 -126.25014453 132.67584755 -121.6875 127.25 C-114.787952 121.47363423 -108.94976184 119.82451447 -100 120 C-99.88785156 118.87335938 -99.77570313 117.74671875 -99.66015625 116.5859375 C-95.96086383 87.28754154 -78.88648882 59.97528208 -59 39 C-58.10667969 38.04222656 -57.21335937 37.08445313 -56.29296875 36.09765625 C-44.50621979 23.71154709 -18.29208537 0 0 0 Z " fill="#000000" transform="translate(128,33)"/>
<path d="M0 0 C84.81 0 169.62 0 257 0 C255.82652239 19.94911943 255.82652239 19.94911943 254.3125 27.0625 C254.05303589 28.30990967 254.05303589 28.30990967 253.78833008 29.58251953 C248.73973338 52.53706915 237.21764522 73.09399972 221 90 C220.23042969 90.83273437 219.46085938 91.66546875 218.66796875 92.5234375 C209.52996223 102.11908247 198.80960122 109.08652861 187 115 C186.15308594 115.42925781 185.30617187 115.85851562 184.43359375 116.30078125 C176.56999127 120.08609213 168.39276006 122.69438629 160 125 C158.85917969 125.32355469 157.71835938 125.64710938 156.54296875 125.98046875 C136.27110046 130.74111698 111.91547693 129.82728641 92 124 C91.27361328 123.79101074 90.54722656 123.58202148 89.79882812 123.36669922 C73.1117685 118.3985403 58.25530453 110.23302089 45 99 C43.99453125 98.15824219 42.9890625 97.31648438 41.953125 96.44921875 C17.17500227 75.10172847 5.26732746 46.60396478 0 15 C0 10.05 0 5.1 0 0 Z " fill="#000000" transform="translate(51,256)"/>
<path d="M0 0 C3.37362242 1.28177144 6.51774045 2.90617304 9.6953125 4.6015625 C52.4192159 26.50644735 104.21717006 31.13120994 150.16113281 17.19042969 C162.36884453 13.22565361 174.50392188 8.06994406 185.37890625 1.203125 C186.10207031 0.79835938 186.82523438 0.39359375 187.5703125 -0.0234375 C189.7578125 0.6015625 189.7578125 0.6015625 192.5703125 1.9765625 C194.14523389 2.50245892 195.7298654 2.99967419 197.3203125 3.4765625 C198.1865625 3.73695313 199.0528125 3.99734375 199.9453125 4.265625 C203.05709555 5.10839958 206.1795839 5.68175939 209.3671875 6.15625 C214.20085119 7.95601839 217.02063281 10.87672879 219.26782227 15.37304688 C219.76499393 16.76514033 220.24041979 18.16510527 220.69921875 19.5703125 C220.97818497 20.37295532 221.25715118 21.17559814 221.54457092 22.00256348 C222.57380107 24.98720407 223.57113481 27.98172857 224.5703125 30.9765625 C225.23280397 32.93117822 225.89812258 34.88481933 226.56349754 36.8384552 C229.38390457 45.12298318 232.16139499 53.42149074 234.92504883 61.72509766 C236.25701042 65.7268642 237.59590657 69.72627422 238.93651485 73.72515106 C239.975066 76.82611906 241.0094879 79.92845235 242.042696 83.03120422 C242.53529121 84.50847734 243.0293002 85.98527983 243.52476311 87.46159363 C244.21082844 89.50749971 244.89117972 91.55521887 245.57006836 93.60351562 C245.95754745 94.76532349 246.34502655 95.92713135 246.74424744 97.12414551 C247.5703125 99.9765625 247.5703125 99.9765625 247.5703125 102.9765625 C145.9303125 102.9765625 44.2903125 102.9765625 -60.4296875 102.9765625 C-57.05346332 91.7224819 -57.05346332 91.7224819 -55.47192383 87.04980469 C-55.11757767 86.0004071 -54.76323151 84.95100952 -54.39814758 83.86981201 C-54.02312607 82.76550842 -53.64810455 81.66120483 -53.26171875 80.5234375 C-52.86321213 79.34678528 -52.46470551 78.17013306 -52.05412292 76.95782471 C-51.21201824 74.47320978 -50.3690096 71.98890106 -49.52514648 69.50488281 C-48.26044389 65.78032766 -47.00015198 62.05430107 -45.74023438 58.328125 C-43.71182646 52.33894622 -41.66427577 46.35661955 -39.60162354 40.37915039 C-38.83026941 38.13960818 -38.06318411 35.89859037 -37.30072021 33.65600586 C-36.25790956 30.59616223 -35.19629735 27.54352874 -34.12890625 24.4921875 C-33.82708939 23.59554382 -33.52527252 22.69890015 -33.21430969 21.77508545 C-31.19702825 16.09770199 -28.99381025 11.82603703 -23.39672852 8.92163086 C-22.74889404 8.72190674 -22.10105957 8.52218262 -21.43359375 8.31640625 C-20.70978516 8.07986328 -19.98597656 7.84332031 -19.24023438 7.59960938 C-18.49837891 7.37337891 -17.75652344 7.14714844 -16.9921875 6.9140625 C-12.6193782 5.55066257 -8.9990797 4.37341161 -5.20703125 1.73046875 C-2.4296875 -0.0234375 -2.4296875 -0.0234375 0 0 Z " fill="#000000" transform="translate(85.4296875,409.0234375)"/>
<path d="M0 0 C15.51 0 31.02 0 47 0 C47.495 10.395 47.495 10.395 48 21 C52.455 22.98 52.455 22.98 57 25 C61.62 20.38 66.24 15.76 71 11 C74.19771119 12.5988556 75.66449155 13.41598693 78.02441406 15.79736328 C78.58469299 16.35779327 79.14497192 16.91822327 79.722229 17.49563599 C80.31404968 18.09777924 80.90587036 18.69992249 81.515625 19.3203125 C82.13145447 19.93897186 82.74728394 20.55763123 83.3817749 21.19503784 C85.34260336 23.16703814 87.29635301 25.14588737 89.25 27.125 C90.58026799 28.46530164 91.910992 29.80515083 93.2421875 31.14453125 C96.5001015 34.42446589 99.75168533 37.71055942 103 41 C101.71825282 43.81878012 100.38992385 45.85241496 98.1796875 48.015625 C97.64472656 48.54414063 97.10976563 49.07265625 96.55859375 49.6171875 C96.00300781 50.15601563 95.44742188 50.69484375 94.875 51.25 C94.31167969 51.80429687 93.74835938 52.35859375 93.16796875 52.9296875 C91.78313972 54.29104485 90.39216796 55.64614859 89 57 C89.99 58.6396875 89.99 58.6396875 91 60.3125 C92.58464929 62.93707538 93 63.8256378 93 67 C99.6 67 106.2 67 113 67 C113 82.51 113 98.02 113 114 C103.1 114.495 103.1 114.495 93 115 C91.68 117.97 90.36 120.94 89 124 C93.62 128.62 98.24 133.24 103 138 C101.4011444 141.19771119 100.58401307 142.66449155 98.20263672 145.02441406 C97.64220673 145.58469299 97.08177673 146.14497192 96.50436401 146.722229 C95.90222076 147.31404968 95.30007751 147.90587036 94.6796875 148.515625 C94.06102814 149.13145447 93.44236877 149.74728394 92.80496216 150.3817749 C90.83296186 152.34260336 88.85411263 154.29635301 86.875 156.25 C85.53469836 157.58026799 84.19484917 158.910992 82.85546875 160.2421875 C79.57553411 163.5001015 76.28944058 166.75168533 73 170 C70.18121988 168.71825282 68.14758504 167.38992385 65.984375 165.1796875 C65.45585937 164.64472656 64.92734375 164.10976563 64.3828125 163.55859375 C63.57457031 162.72521484 63.57457031 162.72521484 62.75 161.875 C62.19570313 161.31167969 61.64140625 160.74835938 61.0703125 160.16796875 C59.70895515 158.78313972 58.35385141 157.39216796 57 156 C56.44570313 156.28875 55.89140625 156.5775 55.3203125 156.875 C54.59585938 157.24625 53.87140625 157.6175 53.125 158 C52.40570313 158.37125 51.68640625 158.7425 50.9453125 159.125 C49 160 49 160 47 160 C47 166.6 47 173.2 47 180 C31.49 180 15.98 180 0 180 C-0.33 173.4 -0.66 166.8 -1 160 C-3.97 158.68 -6.94 157.36 -10 156 C-14.62 160.62 -19.24 165.24 -24 170 C-27.19771119 168.4011444 -28.66449155 167.58401307 -31.02441406 165.20263672 C-31.58469299 164.64220673 -32.14497192 164.08177673 -32.722229 163.50436401 C-33.31404968 162.90222076 -33.90587036 162.30007751 -34.515625 161.6796875 C-35.13145447 161.06102814 -35.74728394 160.44236877 -36.3817749 159.80496216 C-38.34260336 157.83296186 -40.29635301 155.85411263 -42.25 153.875 C-43.58026799 152.53469836 -44.910992 151.19484917 -46.2421875 149.85546875 C-49.5001015 146.57553411 -52.75168533 143.28944058 -56 140 C-54.71825282 137.18121988 -53.38992385 135.14758504 -51.1796875 132.984375 C-50.64472656 132.45585937 -50.10976563 131.92734375 -49.55859375 131.3828125 C-49.00300781 130.84398437 -48.44742187 130.30515625 -47.875 129.75 C-47.31167969 129.19570313 -46.74835938 128.64140625 -46.16796875 128.0703125 C-44.78313972 126.70895515 -43.39216796 125.35385141 -42 124 C-42.66 122.906875 -43.32 121.81375 -44 120.6875 C-45.58464929 118.06292462 -46 117.1743622 -46 114 C-52.93 114 -59.86 114 -67 114 C-67 98.49 -67 82.98 -67 67 C-56.605 66.505 -56.605 66.505 -46 66 C-42.77285144 59.92031589 -42.77285144 59.92031589 -43.14013672 56.7421875 C-45.00368693 52.9664083 -48.77432245 50.2207466 -51.87109375 47.421875 C-53.5078125 45.875 -53.5078125 45.875 -56 43 C-55.71423866 39.84942507 -54.55694483 38.17496531 -52.37963867 35.9597168 C-51.83204391 35.39621017 -51.28444916 34.83270355 -50.72026062 34.25212097 C-49.82812614 33.35968437 -49.82812614 33.35968437 -48.91796875 32.44921875 C-48.30738113 31.83101761 -47.69679352 31.21281647 -47.06770325 30.57588196 C-45.77614917 29.27353377 -44.48060773 27.9751295 -43.18139648 26.68041992 C-41.19120504 24.69120323 -39.22329947 22.68161278 -37.25585938 20.66992188 C-35.99869827 19.40755576 -34.74027641 18.14644368 -33.48046875 16.88671875 C-32.89178513 16.28163986 -32.3031015 15.67656097 -31.69657898 15.05314636 C-30.00854492 13.39331055 -30.00854492 13.39331055 -27 11 C-21.74138181 11.46621548 -18.74932292 16.18948677 -15.421875 19.87109375 C-13.72304038 21.72283451 -13.72304038 21.72283451 -11 24 C-8.65302414 23.68204065 -7.04327065 23.02229094 -4.9375 21.9375 C-3 21 -3 21 0 21 C0 14.07 0 7.14 0 0 Z M-7 59 C-7.60714844 59.50144531 -8.21429688 60.00289063 -8.83984375 60.51953125 C-16.86940658 67.74086675 -21.35087292 78.3220438 -22.25 88.95703125 C-22.72332019 101.42605992 -19.07923899 111.51289362 -11 121 C-1.76806685 130.92999993 9.84591162 135.72379668 23.3125 136.3125 C33.64503029 136.00215898 42.66592995 133.05723648 51 127 C51.70898438 126.48566406 52.41796875 125.97132813 53.1484375 125.44140625 C63.04202689 117.53790668 67.80607555 107.05587072 69.27734375 94.6640625 C69.84324524 82.12368555 64.72167007 71.17238204 56.8125 61.8125 C48.15128984 52.562385 37.38760196 47.84106331 24.82421875 47 C12.85621808 47 2.00016776 51.23993886 -7 59 Z " fill="#000000" transform="translate(399,332)"/>
<path d="M0 0 C6.76942053 4.05483746 10.17757953 9.24289117 12.3125 16.875 C12.70768079 19.88696617 12.73369262 22.85132028 12.71655273 25.88623047 C12.72341599 26.7491571 12.73027924 27.61208374 12.73735046 28.50115967 C12.75553492 31.33167339 12.75179255 34.16162833 12.74609375 36.9921875 C12.75065992 38.97462136 12.75596678 40.95705364 12.76197815 42.93948364 C12.77089315 47.08683721 12.76850489 51.23399806 12.75854492 55.38134766 C12.74706396 60.67600193 12.76726181 65.96998838 12.79646206 71.26455498 C12.81487735 75.35686414 12.81452088 79.4490149 12.80882454 83.54135513 C12.80867194 85.49244243 12.81466501 87.44354089 12.82711601 89.39458847 C12.94947683 111.71207608 12.94947683 111.71207608 6.62107849 118.75827026 C0.80950663 124.33018911 -5.67643147 126.4315048 -13.625 126.3125 C-14.32794189 126.30565186 -15.03088379 126.29880371 -15.75512695 126.29174805 C-23.02990096 126.06638958 -27.01165245 124.12514453 -32.4375 119.5625 C-38.53213978 112.28279137 -39.83509152 105.90793806 -39.84863281 96.55566406 C-39.85359772 95.7305835 -39.85856262 94.90550293 -39.86367798 94.05541992 C-39.87824707 91.33381303 -39.88509317 88.61226444 -39.890625 85.890625 C-39.89638119 83.99119059 -39.90213886 82.09175618 -39.90789795 80.19232178 C-39.91839329 76.21121959 -39.92424541 72.23013751 -39.92773438 68.24902344 C-39.93321311 63.16394622 -39.95723413 58.07913757 -39.98570633 52.99414444 C-40.00439076 49.07004028 -40.00954142 45.14600004 -40.01107025 41.22185516 C-40.01408468 39.34808638 -40.02207206 37.4743184 -40.03525543 35.60059357 C-40.0524362 32.97082981 -40.0504065 30.34171217 -40.04394531 27.71191406 C-40.0531601 26.94796326 -40.06237488 26.18401245 -40.0718689 25.39691162 C-40.01158046 17.50773887 -37.82022096 9.97877628 -32.6875 3.875 C-23.43414505 -3.03691898 -10.71260706 -5.048842 0 0 Z " fill="#000000" transform="translate(192.6875,2.125)"/>
</svg>
